<svg xmlns="http://www.w3.org/2000/svg" viewBox="0 0 24 24" fill="none">
    <path d="M24 12.073C24 5.405 18.627 0 12 0S0 5.405 0 12.073C0 18.1 4.388 23.094 10.125 24v-8.437H7.078v-3.49h3.047v-2.6c0-3.025 1.792-4.697 4.533-4.697 1.312 0 2.686.235 2.686.235v2.953H15.83c-1.491 0-1.956.925-1.956 1.874v2.25h3.328l-.532 3.49h-2.796v8.438C19.612 23.094 24 18.1 24 12.073z" fill="#0866FF"/>
    <path d="M16.671 15.636l.532-3.49h-3.328v-2.25c0-.949.465-1.874 1.956-1.874h1.513V5.069s-1.374-.235-2.686-.235c-2.741 0-4.533 1.672-4.533 4.697v2.6H7.078v3.49h3.047v8.437c1.875.294 3.805.294 5.68 0v-8.437h2.796" fill="#FFFFFF"/>
</svg>
