<svg xmlns="http://www.w3.org/2000/svg" viewBox="0 0 24 24" fill="none">
    <path d="M16.9602 22.0298L21.2701 14.5698C21.68 13.8598 21.44 12.9498 20.72 12.5398L13.19 8.18981C12.48 7.77981 11.57 8.01981 11.16 8.73981L6.83995 16.2098C6.42995 16.9198 6.66995 17.8198 7.37995 18.2398L14.9102 22.5898C15.6302 22.9998 16.5402 22.7498 16.9602 22.0298Z" fill="#F9AB00"/>
    <path d="M4.61998 19.3396C4.43998 19.0296 4.34998 18.6696 4.34998 18.3096C4.34998 17.4396 4.80998 16.6396 5.56998 16.2096L14.8901 10.8296L12.5901 6.84964L7.38002 9.85964C6.01002 10.6496 5.53998 12.4096 6.32998 13.7796L8.85002 18.1396L4.61998 19.3396Z" fill="#34A853"/>
    <path d="M16.7103 2.05963C15.3403 1.26963 13.5802 1.73963 12.7902 3.10963L4.99023 16.6096L9.85023 19.4196L17.7503 5.72963C18.1603 5.01963 18.4002 4.22963 18.4002 3.42963C18.4002 2.92963 18.2703 2.45963 18.0303 2.04963C16.5103 2.16963 16.6203 2.11963 16.7103 2.05963Z" fill="#4285F4"/>
</svg>
