<svg xmlns="http://www.w3.org/2000/svg" viewBox="0 0 367.38 117.01">
  <defs>
    <linearGradient id="a" x1="41.97" y1="65.76" x2="14.21" y2="36.36" gradientUnits="userSpaceOnUse">
      <stop offset=".1" stop-color="#44c0eb"/>
      <stop offset=".25" stop-color="#43bce8"/>
      <stop offset=".39" stop-color="#41b1e1"/>
      <stop offset=".53" stop-color="#3c9ed4"/>
      <stop offset=".66" stop-color="#3784c1"/>
      <stop offset=".79" stop-color="#2f62aa"/>
      <stop offset=".89" stop-color="#284294"/>
    </linearGradient>
    <linearGradient id="b" x1="23.7" y1="83.46" x2="71.01" y2="83.46" gradientUnits="userSpaceOnUse">
      <stop offset=".16" stop-color="#44c0eb"/>
      <stop offset="1" stop-color="#284294"/>
    </linearGradient>
    <linearGradient id="c" x1="61.91" y1="91.25" x2="102.59" y2="21.76" gradientUnits="userSpaceOnUse">
      <stop offset=".28" stop-color="#1d4392"/>
      <stop offset=".41" stop-color="#6463a4"/>
      <stop offset=".64" stop-color="#e49dc5"/>
      <stop offset=".68" stop-color="#e396c1"/>
      <stop offset=".75" stop-color="#e084b7"/>
      <stop offset=".82" stop-color="#da65a6"/>
      <stop offset=".9" stop-color="#d33b8f"/>
      <stop offset=".92" stop-color="#d13089"/>
    </linearGradient>
    <linearGradient id="d" y1="38.71" x2="88.12" y2="38.71" gradientUnits="userSpaceOnUse">
      <stop offset="0" stop-color="#44c0eb"/>
      <stop offset=".24" stop-color="#43bde9"/>
      <stop offset=".41" stop-color="#41b4e3"/>
      <stop offset=".55" stop-color="#3ea5d8"/>
      <stop offset=".68" stop-color="#398fc9"/>
      <stop offset=".8" stop-color="#3373b6"/>
      <stop offset=".92" stop-color="#2b519e"/>
      <stop offset=".96" stop-color="#284294"/>
    </linearGradient>
    <linearGradient id="e" x1="65.02" y1="79.72" x2="28.3" y2="78.02" gradientUnits="userSpaceOnUse">
      <stop offset=".04" stop-color="#44c0eb"/>
      <stop offset=".08" stop-color="#44c0eb"/>
      <stop offset=".19" stop-color="#42b6e4"/>
      <stop offset=".37" stop-color="#3c9ad1"/>
      <stop offset=".6" stop-color="#326eb3"/>
      <stop offset=".81" stop-color="#284294"/>
    </linearGradient>
  </defs>
  <g data-name="Layer 2">
    <g data-name="Layer 1">
      <path d="M73.33 49.74c0 8.59-5.48 16.69-12.27 20.92a23.91 23.91 0 0 1-11.69 3 24 24 0 0 1 0-47.94h.5a23.95 23.95 0 0 1 23.47 24Z" style="fill:none"/>
      <path d="M33.45 67.66a24 24 0 0 1 15.91-41.89h.5q-.42-.09-.84-.15a38.05 38.05 0 0 0-28.14 6.78c-5.31 4.72-10 10.09-12.6 16.93-.08.23-.17.45-.25.67a38.49 38.49 0 0 0 .21 27.41 49.78 49.78 0 0 0 15.46 14.7 39.27 39.27 0 0 1 2.73-6.77c2.48-5.96 4.76-11.81 7.02-17.68Z" style="fill:url(#a)"/>
      <path d="M66.39 70.25a6.42 6.42 0 0 0-.52-2.07 43.2 43.2 0 0 1-4.82 2.49 23.91 23.91 0 0 1-11.69 3 24.18 24.18 0 0 1-3.09-.2 23.89 23.89 0 0 1-12.82-5.85c-2.26 5.87-4.54 11.72-7 17.68a39.27 39.27 0 0 0-2.73 6.77 49.64 49.64 0 0 0 46.9 2.38l.38-.15a89.8 89.8 0 0 1-4.61-24.05Z" style="fill:url(#b)"/>
      <path d="M99 49.63a49.47 49.47 0 0 0-13.44-34 44.92 44.92 0 0 1-3.89 37c-.15.24-.3.48-.44.72A43 43 0 0 1 66.1 68l-.23.14a6.42 6.42 0 0 1 .52 2.07A89.8 89.8 0 0 0 71 94.3a49.63 49.63 0 0 0 28-44.67Z" style="fill:url(#c)"/>
      <path d="M88.12 29.91a44.5 44.5 0 0 1-6.2 22.75c-.14.24-.29.48-.44.72A43 43 0 0 1 66.36 68a41.88 41.88 0 0 1-5 2.63c6.75-4.2 12.24-12.3 12.24-20.89a24 24 0 0 0-23.48-24q-.42-.09-.84-.15a38 38 0 0 0-28.13 6.81c-5.32 4.72-10 10.09-12.6 16.93-.09.23-.17.45-.25.67a38.49 38.49 0 0 0 .2 27.41 49.63 49.63 0 0 1 77.31-61.74 44.6 44.6 0 0 1 2.31 14.24Z" style="fill:url(#d)"/>
      <path d="m97.49 117-.23-16.19c.23-8.77-.08-13-5.2-17.34l-24.81-21L43.7 42.94l.24 16.19c-.24 8.77.08 13 5.19 17.34l11 9.28Z" style="fill:url(#e)"/>
      <path d="M134.12 67.23a19.8 19.8 0 0 1-10.71-2.94 20.22 20.22 0 0 1-7.41-8.36 28.54 28.54 0 0 1-2.7-12.85 28.66 28.66 0 0 1 2.7-12.89 20.15 20.15 0 0 1 7.41-8.38 21 21 0 0 1 21.43 0 20.11 20.11 0 0 1 7.36 8.38 28.8 28.8 0 0 1 2.69 12.89 28.68 28.68 0 0 1-2.69 12.85 20.18 20.18 0 0 1-7.36 8.36 19.72 19.72 0 0 1-10.72 2.94Zm0-5.31a14.2 14.2 0 0 0 7.73-2.17 14.91 14.91 0 0 0 5.5-6.37 23.43 23.43 0 0 0 2-10.3 23.63 23.63 0 0 0-2-10.35 15 15 0 0 0-5.5-6.39 14.93 14.93 0 0 0-15.47 0 15.08 15.08 0 0 0-5.53 6.39 23.49 23.49 0 0 0-2 10.35 23.29 23.29 0 0 0 2 10.3 15 15 0 0 0 5.53 6.37 14.3 14.3 0 0 0 7.74 2.17Zm6.31-7.6c1.22 1.76 3.44 4.51 4.66 6.27L152.93 71h-6.26l-5.12-6.89c-2-2.92-5-6.85-7-9.77Zm55.12-34.82h5.69v31.17a16.51 16.51 0 0 1-2.24 8.61 16 16 0 0 1-6.37 6 22.45 22.45 0 0 1-19.3 0 16.09 16.09 0 0 1-6.4-6 16.43 16.43 0 0 1-2.27-8.61V19.5h5.69v30.72a12.24 12.24 0 0 0 1.51 6.13 10.65 10.65 0 0 0 4.37 4.22 14 14 0 0 0 6.77 1.54 13.77 13.77 0 0 0 6.73-1.54 10.67 10.67 0 0 0 4.27-4.22 12.25 12.25 0 0 0 1.52-6.13Zm22.96 0v47.1h-5.69V19.5Zm49 0v47.1h-5.63l-25.6-37h-.5v37h-5.69V19.5h5.5l25.79 37h.44v-37Zm17.27 0v47.1h-5.69V19.5Zm8.99 5.06V19.5h35.33v5.06h-14.79v42h-5.69v-42Zm44.32 42.04V19.5h28.45v5.06h-22.76V40.3H365v5.06h-21.22v16.18h23.07v5.06Z" style="stroke:#1d1d1b;stroke-miterlimit:10;stroke-width:1.06px;fill:#1d1d1b"/>
      <path d="M120.79 83.48v-2H135v2h-6v16.88h-2.28V83.48Zm22.02 16.88V81.45h11.42v2h-9.14v6.35h8.53v2h-8.53v6.5h9.27v2Zm27.44.26a8 8 0 0 1-4.3-1.18 8.12 8.12 0 0 1-3-3.36 12.91 12.91 0 0 1 0-10.34 8 8 0 0 1 3-3.36 7.91 7.91 0 0 1 4.3-1.18 8.46 8.46 0 0 1 2.69.41 7.59 7.59 0 0 1 2.28 1.22 6.88 6.88 0 0 1 1.69 1.94 7.68 7.68 0 0 1 .93 2.59h-2.28a4.71 4.71 0 0 0-.71-1.73 5 5 0 0 0-1.21-1.27 5.39 5.39 0 0 0-1.58-.77 6 6 0 0 0-1.81-.26 5.77 5.77 0 0 0-3.11.87 5.94 5.94 0 0 0-2.21 2.56 10.91 10.91 0 0 0 0 8.3 6 6 0 0 0 2.21 2.56 5.76 5.76 0 0 0 3.11.86 6 6 0 0 0 1.81-.26 5.39 5.39 0 0 0 1.58-.77 4.83 4.83 0 0 0 1.92-3h2.28a7.66 7.66 0 0 1-.93 2.6 7 7 0 0 1-1.69 1.95 7.56 7.56 0 0 1-2.28 1.21 8.47 8.47 0 0 1-2.69.41Zm15.59-.26V81.45h2.29v8.43h10.08v-8.43h2.28v18.91h-2.28v-8.45h-10.08v8.45Zm38.55-18.91v18.91h-2.26l-10.29-14.85h-.2v14.85h-2.28V81.45h2.2l10.36 14.88h.18V81.45Zm16.49 19.17a7.83 7.83 0 0 1-7.28-4.54 12.81 12.81 0 0 1 0-10.34 7.83 7.83 0 0 1 7.28-4.54 7.89 7.89 0 0 1 4.3 1.18 8 8 0 0 1 3 3.36 12.91 12.91 0 0 1 0 10.34 8.17 8.17 0 0 1-3 3.36 8 8 0 0 1-4.3 1.18Zm0-2.14a5.72 5.72 0 0 0 3.1-.86 6.07 6.07 0 0 0 2.21-2.56 10.91 10.91 0 0 0 0-8.3A6 6 0 0 0 244 84.2a6 6 0 0 0-6.21 0 6 6 0 0 0-2.22 2.56 10.79 10.79 0 0 0 0 8.3 6.09 6.09 0 0 0 2.22 2.56 5.76 5.76 0 0 0 3.09.86Zm16.46 1.88V81.45h2.29v16.88h8.81v2Zm25.81.26a8 8 0 0 1-4.3-1.18 8.21 8.21 0 0 1-3-3.36 12.91 12.91 0 0 1 0-10.34 8.08 8.08 0 0 1 3-3.36 8 8 0 0 1 11.56 3.36 12.91 12.91 0 0 1 0 10.34 7.78 7.78 0 0 1-7.26 4.54Zm0-2.14a5.73 5.73 0 0 0 3.11-.86 6.13 6.13 0 0 0 2.21-2.56 10.91 10.91 0 0 0 0-8.3 6.07 6.07 0 0 0-2.21-2.56 6 6 0 0 0-6.22 0 6 6 0 0 0-2.22 2.56 10.91 10.91 0 0 0 0 8.3 6.09 6.09 0 0 0 2.18 2.56 5.76 5.76 0 0 0 3.15.86Zm24.16 2.14a8.26 8.26 0 0 1-4.41-1.18 8 8 0 0 1-3-3.36 13.14 13.14 0 0 1 0-10.34 8 8 0 0 1 2.93-3.36 7.81 7.81 0 0 1 4.29-1.18 8.41 8.41 0 0 1 2.79.44 7.48 7.48 0 0 1 4 3.22 7.61 7.61 0 0 1 .94 2.5h-2.36a6.84 6.84 0 0 0-.79-1.68 5.46 5.46 0 0 0-1.17-1.27 5 5 0 0 0-1.54-.8 5.89 5.89 0 0 0-1.88-.28 5.59 5.59 0 0 0-3.05.87 6.05 6.05 0 0 0-2.2 2.56 9.61 9.61 0 0 0-.82 4.16 9.4 9.4 0 0 0 .83 4.14 6 6 0 0 0 2.23 2.56 5.91 5.91 0 0 0 3.16.86 5.74 5.74 0 0 0 2.86-.69 5 5 0 0 0 1.93-2 6.23 6.23 0 0 0 .7-3l.71.15h-5.69v-2H315v2a8 8 0 0 1-1 4.06 6.91 6.91 0 0 1-2.73 2.66 8.3 8.3 0 0 1-3.96.96Zm18.21-19.17v18.91h-2.29V81.45Zm8.86 18.91V81.45h11.43v2h-9.14v6.35h8.53v2h-8.53v6.5h9.26v2Zm25.82.33a8.59 8.59 0 0 1-3.51-.65 5.58 5.58 0 0 1-2.33-1.83 5.27 5.27 0 0 1-1-2.72h2.36a3 3 0 0 0 .73 1.76 3.66 3.66 0 0 0 1.61 1 6.59 6.59 0 0 0 4.46-.08 4 4 0 0 0 1.7-1.17 2.89 2.89 0 0 0 .6-1.82 2.15 2.15 0 0 0-.53-1.52 3.85 3.85 0 0 0-1.39-1 14.44 14.44 0 0 0-1.86-.65l-2.31-.66a8.56 8.56 0 0 1-3.51-1.82 4 4 0 0 1-1.29-3.1 4.64 4.64 0 0 1 .86-2.78 5.69 5.69 0 0 1 2.32-1.84 7.89 7.89 0 0 1 3.27-.66 7.64 7.64 0 0 1 3.25.65 5.69 5.69 0 0 1 2.26 1.78 4.35 4.35 0 0 1 .89 2.54h-2.23a2.91 2.91 0 0 0-1.34-2.12 5.14 5.14 0 0 0-2.9-.77 5.52 5.52 0 0 0-2.19.4 3.55 3.55 0 0 0-1.46 1.12 2.72 2.72 0 0 0-.52 1.62 2.19 2.19 0 0 0 .62 1.62 4.5 4.5 0 0 0 1.48 1c.57.23 1.09.41 1.56.55l1.9.53c.49.14 1 .32 1.65.55a8.4 8.4 0 0 1 1.75.92 5 5 0 0 1 1.39 1.46 4.36 4.36 0 0 1 .54 2.25 5 5 0 0 1-.8 2.76 5.44 5.44 0 0 1-2.32 2 8.46 8.46 0 0 1-3.71.68Z" style="fill:#1d1d1b"/>
    </g>
  </g>
</svg>
