<svg xmlns="http://www.w3.org/2000/svg" xmlns:xlink="http://www.w3.org/1999/xlink" width="351.46751167740365" height="284.52131897694585" viewBox="0 0 32 24" version="1.1">
    <title>component/atomic/logo-mobile on white</title>
    <g id="Eqaro-New-Interventions" stroke="none" stroke-width="1" fill="none" fill-rule="evenodd">
        <g id="Artboard" transform="translate(-318, -41)">
            <g id="Logo-Combinations-03" transform="translate(318, 41)">
                <g id="Group" transform="translate(5.25, 7.4375)" fill="#D8232A" fill-rule="nonzero">
                    <path d="M0,5.15209677 L2.48477419,5.15209677 L2.48477419,5.80879032 C4.43809825,4.69214839 6.88678076,5.02476604 8.47993548,6.62314516 C8.55716129,6.70129032 8.62354839,6.77258065 8.69264516,6.8466129 C8.7603871,6.77258065 8.82812903,6.70129032 8.904,6.62314516 C10.3252966,5.1845597 12.4631063,4.7541463 14.3203374,5.53265324 C16.1775684,6.31116019 17.3883643,8.14522914 17.3880001,10.1794355 L17.3880001,17.7197581 L14.9045806,17.7197581 L14.9045806,10.1794355 C14.912085,9.50878416 14.6470934,8.86443994 14.1716129,8.39717742 C13.7141281,7.915306 13.0786851,7.64846275 12.4184516,7.66096774 C11.7586879,7.65803302 11.1251281,7.92203914 10.6587275,8.39424966 C10.1923268,8.86646017 9.93177222,9.50770626 9.93503226,10.1753226 L9.93503226,17.7156452 L7.44890323,17.7156452 L7.44890323,10.1753226 C7.46106228,9.50486078 7.19756951,8.85938879 6.72135484,8.39306452 C6.25627649,7.92172524 5.62506513,7.65686862 4.96683871,7.65686862 C4.30861229,7.65686862 3.67740093,7.92172524 3.21232258,8.39306452 C2.73610791,8.85938879 2.47261514,9.50486078 2.48477419,10.1753226 L2.48477419,17.7156452 L0,17.7156452 L0,5.15209677 Z" id="Path"/>
                    <path d="M29.8985806,6.88637097 C27.7174973,4.6663674 24.2543467,4.4091653 21.7763226,6.28314516 L21.7763226,0 L19.2820645,0 L19.2820645,17.6183065 L21.7763226,17.6183065 L21.7763226,16.3762097 C23.6629084,17.8005444 26.1823408,18.0255314 28.2862858,16.9575538 C30.3902309,15.8895762 31.7183945,13.7115219 31.718129,11.3296774 C31.7447918,9.65771501 31.0861043,8.04921122 29.8985806,6.88637097 L29.8985806,6.88637097 Z M28.1372903,13.9989516 C26.879254,15.2645034 24.9132084,15.4552448 23.4404562,14.4546281 C21.9677039,13.4540113 21.3979536,11.5404004 22.0793367,9.88305906 C22.7607198,8.22571776 24.5036809,7.28570588 26.2432273,7.63739402 C27.9827737,7.98908216 29.2349769,9.53463334 29.2347097,11.3296774 C29.2489207,12.3346187 28.8517151,13.3007495 28.1372903,13.9989516 L28.1372903,13.9989516 Z" id="Shape"/>
                </g>
            </g>
        </g>
    </g>
</svg>