<svg xmlns="http://www.w3.org/2000/svg" width="1024" height="1024" viewBox="0 0 1024 1024">
<g>
<path d="M 762.54 920.47 C749.52,922.14 709.40,922.62 708.83,921.12 C708.65,920.62 654.24,919.98 584.07,919.64 C501.62,919.24 459.30,918.70 458.62,918.02 C458.05,917.45 452.71,917.00 446.50,917.00 C438.95,917.00 435.00,916.60 434.15,915.75 C433.28,914.88 428.11,914.42 417.20,914.22 C399.47,913.91 397.00,913.58 397.00,911.48 C397.00,910.36 398.40,909.97 402.75,909.87 C425.60,909.37 432.19,908.99 433.74,908.09 C435.56,907.03 434.11,906.80 423.80,906.53 C421.76,906.47 419.82,906.15 419.48,905.81 C418.75,905.08 422.78,896.82 424.38,895.77 C425.00,895.36 426.74,895.02 428.26,895.02 C430.59,895.00 431.36,894.25 433.14,890.25 C434.31,887.64 435.58,884.83 435.98,884.00 C436.38,883.17 438.35,882.36 440.36,882.19 C443.48,881.92 444.32,881.30 446.01,877.98 C447.10,875.83 448.00,873.40 448.00,872.58 C448.00,870.65 451.20,868.93 454.18,869.25 C456.10,869.46 457.03,868.46 459.56,863.50 C462.25,858.23 463.02,857.46 465.86,857.18 C468.05,856.97 469.40,856.16 470.03,854.68 C472.93,847.89 475.75,844.49 478.86,844.00 C481.59,843.57 482.43,842.69 484.59,838.02 C487.44,831.86 488.34,831.04 492.26,831.02 C494.59,831.00 495.36,830.25 497.14,826.25 C498.31,823.64 499.58,820.83 499.98,820.00 C500.38,819.17 502.35,818.36 504.36,818.19 C507.48,817.92 508.32,817.30 510.01,813.98 C511.10,811.83 512.00,809.40 512.00,808.58 C512.00,806.65 515.20,804.93 518.18,805.25 C520.10,805.46 521.03,804.46 523.56,799.50 C526.25,794.23 527.02,793.46 529.86,793.18 C532.05,792.97 533.40,792.16 534.03,790.68 C536.93,783.89 539.75,780.49 542.86,780.00 C545.59,779.57 546.43,778.69 548.59,774.02 C551.44,767.86 552.34,767.04 556.26,767.02 C558.59,767.00 559.36,766.25 561.14,762.25 C562.31,759.64 563.58,756.83 563.98,756.00 C564.38,755.17 566.35,754.36 568.36,754.19 C571.48,753.92 572.32,753.30 574.01,749.98 C575.10,747.83 576.00,745.40 576.00,744.58 C576.00,742.65 579.20,740.93 582.18,741.25 C584.10,741.46 585.03,740.46 587.56,735.50 C590.25,730.23 591.02,729.46 593.86,729.18 C596.05,728.97 597.40,728.16 598.03,726.68 C598.55,725.48 600.03,722.70 601.34,720.50 C603.49,716.87 604.09,716.50 607.79,716.50 C612.97,716.50 614.22,715.23 613.82,710.38 L 613.50 706.50 L 608.27 705.97 C605.40,705.69 602.55,704.95 601.93,704.33 C600.12,702.52 601.30,699.62 604.47,698.10 C607.74,696.54 609.71,696.45 618.54,697.51 C624.40,698.22 624.60,698.16 625.79,695.57 C626.45,694.11 627.00,692.74 627.00,692.53 C627.00,692.33 619.69,692.17 610.75,692.18 C583.55,692.21 575.11,690.84 576.57,686.62 C576.97,685.46 577.63,676.85 578.04,667.50 C578.74,651.29 578.78,649.20 579.41,648.99 C579.51,648.96 579.62,648.97 579.74,648.99 C579.81,648.99 579.89,649.00 579.98,649.00 C580.57,649.00 581.06,656.55 581.23,668.25 L 581.50 687.50 L 631.50 687.50 L 631.78 675.25 C631.94,668.51 632.30,663.00 632.60,663.00 C632.90,663.00 635.02,664.29 637.32,665.87 C642.78,669.61 657.94,677.28 665.35,680.04 C688.05,688.50 715.54,689.83 739.50,683.63 C793.95,669.53 831.97,623.14 835.49,566.50 C837.75,530.21 824.83,496.55 798.60,470.44 C784.50,456.39 769.00,446.43 751.23,439.99 C747.78,438.74 745.12,437.54 745.33,437.34 C745.97,436.69 758.28,439.84 758.91,440.81 C759.82,442.22 766.03,445.18 768.70,445.47 C770.01,445.62 772.11,446.69 773.36,447.87 C774.61,449.04 776.09,450.00 776.66,450.00 C777.23,450.00 778.49,450.88 779.47,451.97 C780.45,453.05 782.21,453.84 783.37,453.72 C784.73,453.58 785.51,454.07 785.52,455.08 C785.53,456.78 792.07,463.00 793.85,463.00 C794.44,463.00 795.41,463.91 796.01,465.01 C796.60,466.12 798.75,467.81 800.79,468.77 C803.25,469.93 804.54,471.23 804.61,472.62 C804.78,476.06 805.87,476.98 809.02,476.35 C811.34,475.88 812.10,476.16 812.56,477.63 C812.89,478.66 813.80,480.69 814.58,482.15 C815.36,483.61 816.00,485.49 816.00,486.33 C816.00,487.17 817.58,489.53 819.50,491.57 C821.42,493.61 823.00,495.71 823.00,496.24 C823.00,497.67 827.00,503.00 828.07,503.00 C829.33,503.00 829.25,499.65 827.97,498.37 C827.30,497.70 827.27,496.48 827.87,494.92 L 828.79 492.50 L 829.87 495.25 C831.23,498.71 834.00,498.92 834.00,495.56 C834.00,494.22 833.55,492.84 833.00,492.50 C832.45,492.16 832.01,491.12 832.02,490.19 C832.04,487.14 833.86,485.50 837.21,485.50 C840.22,485.50 840.76,485.00 843.56,479.50 C846.25,474.23 847.02,473.46 849.86,473.18 C852.05,472.97 853.40,472.16 854.03,470.68 C856.93,463.89 859.75,460.49 862.86,460.00 C865.59,459.57 866.43,458.69 868.59,454.02 C871.44,447.86 872.34,447.04 876.26,447.02 C878.59,447.00 879.36,446.25 881.14,442.25 C882.31,439.64 883.58,436.83 883.98,436.00 C884.38,435.17 886.35,434.36 888.36,434.19 C891.48,433.92 892.32,433.30 894.01,429.98 C895.10,427.83 896.00,425.40 896.00,424.58 C896.00,422.76 899.02,421.00 902.15,421.00 C904.38,421.00 910.02,415.60 909.98,413.50 C909.96,412.95 909.08,411.38 908.00,410.00 C905.40,406.68 905.51,405.55 908.55,404.16 C915.60,400.95 917.00,403.75 917.00,421.10 C917.00,428.26 917.51,436.15 918.14,438.63 C919.01,442.08 918.99,444.02 918.05,446.85 C917.05,449.87 917.10,451.64 918.33,456.52 C919.63,461.67 919.85,479.60 919.95,586.00 C920.02,664.66 920.41,709.62 921.03,709.83 C921.61,710.03 922.00,718.03 922.00,729.79 C922.00,768.19 916.67,793.60 902.77,821.50 C875.50,876.22 823.97,912.59 762.54,920.47 ZM 732.50 632.35 C725.55,634.87 722.79,635.30 711.50,635.61 C695.26,636.05 688.83,634.71 675.42,628.08 C658.80,619.85 645.56,605.90 638.55,589.23 C635.22,581.31 632.38,569.14 633.32,566.81 C633.61,566.09 633.89,566.85 633.95,568.50 C634.01,570.15 634.72,572.37 635.53,573.44 C636.34,574.51 637.00,576.61 637.00,578.10 C637.00,583.15 640.72,592.82 644.37,597.28 C646.37,599.71 648.00,602.33 648.00,603.10 C648.01,605.35 654.48,611.76 658.40,613.39 C660.42,614.24 662.00,615.60 662.00,616.51 C662.00,617.39 662.42,617.86 662.94,617.54 C663.46,617.22 665.28,618.31 666.98,619.98 C670.33,623.26 674.03,623.88 676.00,621.50 C677.95,619.15 680.88,619.67 681.59,622.49 C682.09,624.50 682.66,624.87 684.51,624.41 C685.78,624.09 687.87,624.41 689.16,625.13 C690.45,625.84 691.94,626.30 692.47,626.14 C693.01,625.98 692.65,626.72 691.69,627.79 C690.01,629.65 690.03,629.79 692.28,631.26 C694.23,632.54 696.61,632.67 706.56,632.05 C716.24,631.44 717.14,631.27 711.30,631.15 C704.49,631.01 699.00,629.58 699.00,627.94 C699.00,627.54 700.12,625.25 701.49,622.85 C702.86,620.46 703.98,617.73 703.99,616.79 C704.00,614.67 707.08,612.92 710.18,613.25 C712.10,613.46 713.03,612.46 715.56,607.50 C718.25,602.23 719.02,601.46 721.86,601.18 C724.05,600.97 725.40,600.16 726.03,598.68 C728.93,591.89 731.75,588.49 734.86,588.00 C737.59,587.57 738.43,586.69 740.59,582.02 C743.44,575.86 744.34,575.04 748.26,575.02 C750.59,575.00 751.36,574.25 753.14,570.25 C754.31,567.64 755.59,564.83 756.00,564.00 C756.50,563.01 758.23,562.50 761.12,562.50 C763.53,562.50 766.06,562.14 766.75,561.69 C768.29,560.69 768.52,540.44 767.00,539.50 C765.73,538.72 765.68,532.00 766.94,532.00 C767.46,532.00 768.14,532.42 768.46,532.93 C768.78,533.45 770.38,533.83 772.02,533.78 C774.64,533.71 775.00,533.33 775.00,530.74 C775.00,528.12 774.73,527.85 772.60,528.38 C769.81,529.09 768.96,527.67 769.73,523.62 C770.15,521.46 769.56,520.14 767.00,517.50 C765.20,515.64 763.68,513.10 763.62,511.84 C763.55,510.59 762.58,509.10 761.46,508.53 C760.34,507.96 757.73,505.61 755.65,503.31 C751.33,498.52 744.19,494.00 740.93,494.00 C739.72,494.00 738.21,493.30 737.58,492.44 C736.90,491.51 734.61,490.78 731.87,490.62 C729.36,490.48 725.38,489.36 723.03,488.13 C719.33,486.21 717.18,485.90 707.38,485.88 C701.13,485.88 695.56,486.15 695.01,486.49 C694.45,486.84 694.00,486.70 694.00,486.20 C694.00,485.09 702.22,484.01 710.50,484.03 C719.98,484.05 733.12,487.44 743.61,492.58 C751.24,496.32 754.67,498.79 761.36,505.36 C778.05,521.76 786.40,543.78 784.53,566.50 C782.03,596.96 762.71,621.42 732.50,632.35 ZM 634.62 684.19 C634.95,684.73 636.19,684.92 637.36,684.60 C638.54,684.29 640.01,684.02 640.63,684.01 C641.26,684.01 641.99,683.13 642.27,682.08 C642.59,680.86 643.83,680.03 645.64,679.83 C647.72,679.59 648.50,678.96 648.50,677.50 C648.50,676.04 647.72,675.41 645.64,675.17 C643.95,674.98 642.59,674.13 642.32,673.12 C642.07,672.17 640.52,670.88 638.88,670.26 C636.42,669.33 635.78,669.40 635.31,670.63 C634.99,671.46 635.24,672.64 635.87,673.27 C637.39,674.79 637.28,676.93 635.50,680.35 C634.68,681.92 634.28,683.65 634.62,684.19 ZM 921.69 284.75 C922.09,299.74 921.94,306.00 921.18,306.00 C919.71,306.00 918.63,299.78 919.27,295.03 C919.55,292.91 919.41,290.81 918.94,290.34 C918.48,289.88 918.39,282.07 918.74,273.00 C919.58,251.00 920.91,256.30 921.69,284.75 ZM 307.00 921.16 C307.00,922.22 274.70,922.03 266.15,920.92 C256.08,919.62 256.69,919.16 268.59,919.08 C284.67,918.96 307.00,920.17 307.00,921.16 ZM 828.75 477.01 C823.91,479.96 822.36,479.60 821.67,475.34 C820.90,470.60 821.37,470.00 825.86,470.00 C832.46,470.00 834.03,473.79 828.75,477.01 ZM 637.71 453.97 C635.23,455.63 632.94,457.00 632.60,457.00 C632.27,457.00 632.06,454.64 632.14,451.75 C632.21,448.86 632.48,447.62 632.73,449.00 C633.62,453.82 634.71,454.03 640.57,450.50 C643.59,448.68 646.70,446.66 647.48,446.01 C648.27,445.37 649.71,445.01 650.70,445.22 C651.97,445.50 650.98,446.40 647.35,448.27 C644.52,449.73 640.18,452.30 637.71,453.97 ZM 680.50 491.00 C680.16,491.55 678.90,491.97 677.69,491.94 C674.60,491.86 684.46,487.48 689.53,486.68 L 693.50 486.05 L 689.50 487.95 C687.30,489.00 684.51,489.89 683.31,489.93 C682.10,489.97 680.84,490.45 680.50,491.00 ZM 770.44 589.90 C771.61,591.80 774.47,590.71 774.82,588.24 C775.18,585.68 774.19,585.41 771.54,587.35 C770.47,588.13 770.01,589.20 770.44,589.90 ZM 240.16 444.66 C242.15,445.55 242.14,445.62 239.61,446.77 L 237.00 447.96 L 237.15 443.23 C237.23,440.57 237.48,439.64 237.70,441.12 C237.93,442.56 239.03,444.16 240.16,444.66 ZM 753.76 608.42 C754.77,609.43 756.48,608.46 756.82,606.67 C757.01,605.72 756.51,605.00 755.68,605.00 C754.10,605.00 752.74,607.41 753.76,608.42 ZM 652.00 686.43 C652.00,687.35 652.85,688.00 654.08,688.00 C656.52,688.00 656.18,685.66 653.67,685.18 C652.68,684.99 652.00,685.50 652.00,686.43 ZM 826.00 486.50 C826.00,487.33 825.33,488.00 824.50,488.00 C823.67,488.00 823.00,487.33 823.00,486.50 C823.00,485.67 823.67,485.00 824.50,485.00 C825.33,485.00 826.00,485.67 826.00,486.50 ZM 914.00 380.88 C914.00,382.04 913.58,383.00 913.06,383.00 C911.33,383.00 911.01,381.24 912.51,379.99 C913.75,378.96 914.00,379.11 914.00,380.88 ZM 663.50 685.00 C663.84,685.55 664.54,686.00 665.06,686.00 C665.58,686.00 666.00,685.55 666.00,685.00 C666.00,684.45 665.30,684.00 664.44,684.00 C663.58,684.00 663.16,684.45 663.50,685.00 Z" fill="rgb(185,34,40)"/>
<path d="M 307.00 921.16 C307.00,920.17 284.67,918.96 268.59,919.08 C259.47,919.14 256.98,919.43 260.85,920.14 C253.16,919.51 249.47,918.64 244.00,917.42 C239.88,916.51 232.23,914.31 227.00,912.53 C192.08,900.66 164.00,880.79 141.15,851.79 C121.57,826.95 110.99,803.00 104.79,769.50 C103.76,763.89 103.50,712.76 103.50,512.00 C103.50,273.42 103.59,261.05 105.33,252.00 C111.52,219.87 121.98,196.55 141.14,172.21 C158.42,150.25 178.87,133.62 204.34,120.82 C219.03,113.44 232.36,109.11 252.00,105.33 C261.05,103.59 273.45,103.50 513.00,103.50 C752.10,103.50 764.94,103.59 773.50,105.32 C784.77,107.59 797.48,111.13 806.26,114.44 C819.54,119.45 839.27,130.33 848.50,137.73 C850.15,139.06 853.01,141.35 854.86,142.82 C859.38,146.42 878.63,165.65 883.00,170.94 C897.46,188.41 911.27,217.02 917.04,241.48 C917.54,243.60 917.99,245.45 918.40,247.31 C919.17,250.86 919.77,254.45 920.25,260.00 C919.71,257.77 919.16,261.93 918.74,273.00 C918.39,282.07 918.48,289.88 918.94,290.34 C919.41,290.81 919.55,292.91 919.27,295.03 C918.63,299.78 919.71,306.00 921.18,306.00 C921.37,306.00 921.52,305.60 921.64,304.77 C922.00,339.05 922.00,396.23 922.00,496.06 L 922.00 511.93 L 922.00 533.54 C922.00,625.10 922.00,680.15 921.68,714.49 C921.52,711.60 921.29,709.92 921.03,709.83 C920.41,709.62 920.02,664.66 919.95,586.00 C919.85,479.60 919.63,461.67 918.33,456.52 C917.10,451.64 917.05,449.87 918.05,446.85 C918.99,444.02 919.01,442.08 918.14,438.63 C917.51,436.15 917.00,428.26 917.00,421.10 C917.00,403.75 915.60,400.95 908.55,404.16 C905.51,405.55 905.40,406.68 908.00,410.00 C909.08,411.38 909.96,412.95 909.98,413.50 C910.02,415.60 904.38,421.00 902.15,421.00 C899.02,421.00 896.00,422.76 896.00,424.58 C896.00,425.40 895.10,427.83 894.01,429.98 C892.32,433.30 891.48,433.92 888.36,434.19 C886.35,434.36 884.38,435.17 883.98,436.00 C883.58,436.83 882.31,439.64 881.14,442.25 C879.36,446.25 878.59,447.00 876.26,447.02 C872.34,447.04 871.44,447.86 868.59,454.02 C866.43,458.69 865.59,459.57 862.86,460.00 C859.75,460.49 856.93,463.89 854.03,470.68 C853.40,472.16 852.05,472.97 849.86,473.18 C847.02,473.46 846.25,474.23 843.56,479.50 C840.76,485.00 840.22,485.50 837.21,485.50 C833.86,485.50 832.04,487.14 832.02,490.19 C832.01,491.12 832.45,492.16 833.00,492.50 C833.55,492.84 834.00,494.22 834.00,495.56 C834.00,498.92 831.23,498.71 829.87,495.25 L 828.79 492.50 L 827.87 494.92 C827.27,496.48 827.30,497.70 827.97,498.37 C829.25,499.65 829.33,503.00 828.07,503.00 C827.00,503.00 823.00,497.67 823.00,496.24 C823.00,495.71 821.42,493.61 819.50,491.57 C817.58,489.53 816.00,487.17 816.00,486.33 C816.00,485.49 815.36,483.61 814.58,482.15 C813.80,480.69 812.89,478.66 812.56,477.63 C812.10,476.16 811.34,475.88 809.02,476.35 C805.87,476.98 804.78,476.06 804.61,472.62 C804.54,471.23 803.25,469.93 800.79,468.77 C798.75,467.81 796.60,466.12 796.01,465.01 C795.41,463.91 794.44,463.00 793.85,463.00 C792.07,463.00 785.53,456.78 785.52,455.08 C785.51,454.07 784.73,453.58 783.37,453.72 C782.21,453.84 780.45,453.05 779.47,451.97 C778.49,450.88 777.23,450.00 776.66,450.00 C776.09,450.00 774.61,449.04 773.36,447.87 C772.11,446.69 770.01,445.62 768.70,445.47 C766.03,445.18 759.82,442.22 758.91,440.81 C758.28,439.84 745.97,436.69 745.33,437.34 C745.12,437.54 747.78,438.74 751.23,439.99 C769.00,446.43 784.50,456.39 798.60,470.44 C782.25,454.15 763.97,443.42 741.50,436.93 C731.38,434.01 729.03,433.72 712.00,433.28 C694.70,432.83 692.72,432.97 681.50,435.45 C670.14,437.95 659.89,441.63 649.89,446.85 C651.37,445.92 651.59,445.42 650.70,445.22 C649.71,445.01 648.27,445.37 647.48,446.01 C646.70,446.66 643.59,448.68 640.57,450.50 C634.71,454.03 633.62,453.82 632.73,449.00 C632.57,448.11 632.40,448.31 632.28,449.34 C632.10,438.70 632.00,418.06 632.02,394.48 C632.06,360.09 631.82,331.51 631.48,330.98 C630.72,329.74 582.33,329.65 581.57,330.89 C580.90,331.97 580.79,607.33 581.30,673.08 L 581.23 668.25 C581.06,656.55 580.57,649.00 579.98,649.00 C579.89,649.00 579.81,648.99 579.74,648.99 C579.62,648.97 579.51,648.96 579.41,648.99 C578.78,649.20 578.74,651.29 578.04,667.50 C577.63,676.85 576.97,685.46 576.57,686.62 C575.11,690.84 583.55,692.21 610.75,692.18 C619.69,692.17 627.00,692.33 627.00,692.53 C627.00,692.74 626.45,694.11 625.79,695.57 C624.60,698.16 624.40,698.22 618.54,697.51 C609.71,696.45 607.74,696.54 604.47,698.10 C601.30,699.62 600.12,702.52 601.93,704.33 C602.55,704.95 605.40,705.69 608.27,705.97 L 613.50 706.50 L 613.82 710.38 C614.22,715.23 612.97,716.50 607.79,716.50 C604.09,716.50 603.49,716.87 601.34,720.50 C600.03,722.70 598.55,725.48 598.03,726.68 C597.40,728.16 596.05,728.97 593.86,729.18 C591.02,729.46 590.25,730.23 587.56,735.50 C585.03,740.46 584.10,741.46 582.18,741.25 C579.20,740.93 576.00,742.65 576.00,744.58 C576.00,745.40 575.10,747.83 574.01,749.98 C572.32,753.30 571.48,753.92 568.36,754.19 C566.35,754.36 564.38,755.17 563.98,756.00 C563.58,756.83 562.31,759.64 561.14,762.25 C559.36,766.25 558.59,767.00 556.26,767.02 C552.34,767.04 551.44,767.86 548.59,774.02 C546.43,778.69 545.59,779.57 542.86,780.00 C539.75,780.49 536.93,783.89 534.03,790.68 C533.40,792.16 532.05,792.97 529.86,793.18 C527.02,793.46 526.25,794.23 523.56,799.50 C521.03,804.46 520.10,805.46 518.18,805.25 C515.20,804.93 512.00,806.65 512.00,808.58 C512.00,809.40 511.10,811.83 510.01,813.98 C508.32,817.30 507.48,817.92 504.36,818.19 C502.35,818.36 500.38,819.17 499.98,820.00 C499.58,820.83 498.31,823.64 497.14,826.25 C495.36,830.25 494.59,831.00 492.26,831.02 C488.34,831.04 487.44,831.86 484.59,838.02 C482.43,842.69 481.59,843.57 478.86,844.00 C475.75,844.49 472.93,847.89 470.03,854.68 C469.40,856.16 468.05,856.97 465.86,857.18 C463.02,857.46 462.25,858.23 459.56,863.50 C457.03,868.46 456.10,869.46 454.18,869.25 C451.20,868.93 448.00,870.65 448.00,872.58 C448.00,873.40 447.10,875.83 446.01,877.98 C444.32,881.30 443.48,881.92 440.36,882.19 C438.35,882.36 436.38,883.17 435.98,884.00 C435.58,884.83 434.31,887.64 433.14,890.25 C431.36,894.25 430.59,895.00 428.26,895.02 C426.74,895.02 425.00,895.36 424.38,895.77 C422.78,896.82 418.75,905.08 419.48,905.81 C419.82,906.15 421.76,906.47 423.80,906.53 C434.11,906.80 435.56,907.03 433.74,908.09 C432.19,908.99 425.60,909.37 402.75,909.87 C398.40,909.97 397.00,910.36 397.00,911.48 C397.00,913.58 399.47,913.91 417.20,914.22 C428.11,914.42 433.28,914.88 434.15,915.75 C435.00,916.60 438.95,917.00 446.50,917.00 C452.71,917.00 458.05,917.45 458.62,918.02 C459.30,918.70 501.62,919.24 584.07,919.64 C654.24,919.98 708.65,920.62 708.83,921.12 C708.93,921.37 710.15,921.57 712.18,921.71 C676.99,921.92 616.78,921.94 511.54,921.89 C402.75,921.84 341.74,921.82 305.92,921.46 C306.62,921.37 307.00,921.27 307.00,921.16 ZM 240.16 444.66 C239.03,444.16 237.93,442.56 237.70,441.12 C237.48,439.64 237.23,440.57 237.15,443.23 L 237.00 447.87 L 237.00 447.87 L 237.00 435.00 L 186.02 435.00 L 185.76 560.75 C185.62,629.91 185.85,687.29 186.29,688.25 C187.00,689.85 189.20,690.00 211.48,690.00 C224.90,690.00 236.13,689.60 236.42,689.12 C236.72,688.64 236.99,652.30 237.02,608.37 L 237.08 528.50 L 239.95 520.30 C242.92,511.84 245.90,507.05 251.99,501.00 C260.27,492.77 273.04,487.18 285.62,486.29 C304.68,484.93 325.60,497.60 333.86,515.50 C337.18,522.69 337.37,527.14 337.93,608.00 L 338.50 689.50 L 389.50 689.50 L 390.00 608.00 C390.50,526.64 390.50,526.49 392.76,519.85 C396.13,509.92 406.03,497.40 411.99,495.50 C413.10,495.15 414.00,494.55 414.00,494.16 C414.00,493.14 419.64,490.43 426.00,488.39 C433.45,486.01 449.25,486.02 455.50,488.42 C473.10,495.18 483.42,505.71 489.18,522.80 C490.12,525.58 490.56,546.69 490.97,608.00 L 491.50 689.50 L 516.43 689.77 C530.14,689.92 541.74,689.66 542.21,689.19 C542.67,688.73 543.03,654.63 543.01,613.43 C542.97,539.80 542.51,526.46 539.51,513.25 C539.23,512.01 538.79,510.03 538.53,508.85 C536.91,501.48 528.21,483.39 523.22,477.02 C507.18,456.56 487.68,443.55 464.50,437.86 C446.39,433.41 416.77,435.41 403.24,441.98 C400.90,443.12 397.67,444.32 396.06,444.64 C394.45,444.96 392.23,446.07 391.11,447.11 C390.00,448.15 388.78,449.00 388.41,449.00 C386.78,449.00 374.99,457.73 369.82,462.77 L 364.14 468.30 L 357.58 462.29 C350.13,455.47 337.81,447.65 327.50,443.21 C302.06,432.26 269.85,432.69 244.64,444.34 L 241.42 445.83 C241.86,445.45 241.40,445.21 240.16,444.66 ZM 633.21 567.23 C632.75,558.53 633.52,547.88 635.28,541.50 C641.97,517.23 655.88,501.14 679.96,489.82 C684.51,487.68 690.14,486.12 696.16,485.20 C694.80,485.51 694.00,485.85 694.00,486.20 C694.00,486.70 694.45,486.84 695.01,486.49 C695.56,486.15 701.13,485.88 707.38,485.88 C717.18,485.90 719.33,486.21 723.03,488.13 C725.38,489.36 729.36,490.48 731.87,490.62 C734.61,490.78 736.90,491.51 737.58,492.44 C738.21,493.30 739.72,494.00 740.93,494.00 C744.19,494.00 751.33,498.52 755.65,503.31 C757.73,505.61 760.34,507.96 761.46,508.53 C762.58,509.10 763.55,510.59 763.62,511.84 C763.68,513.10 765.20,515.64 767.00,517.50 C769.56,520.14 770.15,521.46 769.73,523.62 C768.96,527.67 769.81,529.09 772.60,528.38 C774.73,527.85 775.00,528.12 775.00,530.74 C775.00,533.33 774.64,533.71 772.02,533.78 C770.38,533.83 768.78,533.45 768.46,532.93 C768.14,532.42 767.46,532.00 766.94,532.00 C765.68,532.00 765.73,538.72 767.00,539.50 C768.52,540.44 768.29,560.69 766.75,561.69 C766.06,562.14 763.53,562.50 761.12,562.50 C758.23,562.50 756.50,563.01 756.00,564.00 C755.59,564.83 754.31,567.64 753.14,570.25 C751.36,574.25 750.59,575.00 748.26,575.02 C744.34,575.04 743.44,575.86 740.59,582.02 C738.43,586.69 737.59,587.57 734.86,588.00 C731.75,588.49 728.93,591.89 726.03,598.68 C725.40,600.16 724.05,600.97 721.86,601.18 C719.02,601.46 718.25,602.23 715.56,607.50 C713.03,612.46 712.10,613.46 710.18,613.25 C707.08,612.92 704.00,614.67 703.99,616.79 C703.98,617.73 702.86,620.46 701.49,622.85 C700.12,625.25 699.00,627.54 699.00,627.94 C699.00,629.58 704.49,631.01 711.30,631.15 C717.14,631.27 716.24,631.44 706.56,632.05 C696.61,632.67 694.23,632.54 692.28,631.26 C690.03,629.79 690.01,629.65 691.69,627.79 C692.65,626.72 693.01,625.98 692.47,626.14 C691.94,626.30 690.45,625.84 689.16,625.13 C687.87,624.41 685.78,624.09 684.51,624.41 C682.66,624.87 682.09,624.50 681.59,622.49 C680.88,619.67 677.95,619.15 676.00,621.50 C674.03,623.88 670.33,623.26 666.98,619.98 C665.28,618.31 663.46,617.22 662.94,617.54 C662.42,617.86 662.00,617.39 662.00,616.51 C662.00,615.60 660.42,614.24 658.40,613.39 C654.48,611.76 648.01,605.35 648.00,603.10 C648.00,602.33 646.37,599.71 644.37,597.28 C640.72,592.82 637.00,583.15 637.00,578.10 C637.00,576.61 636.34,574.51 635.53,573.44 C634.72,572.37 634.01,570.15 633.95,568.50 C633.89,566.85 633.61,566.09 633.32,566.81 C633.27,566.92 633.23,567.07 633.21,567.23 ZM 634.62 684.19 C634.28,683.65 634.68,681.92 635.50,680.35 C637.28,676.93 637.39,674.79 635.87,673.27 C635.24,672.64 634.99,671.46 635.31,670.63 C635.78,669.40 636.42,669.33 638.88,670.26 C640.52,670.88 642.07,672.17 642.32,673.12 C642.59,674.13 643.95,674.98 645.64,675.17 C647.72,675.41 648.50,676.04 648.50,677.50 C648.50,678.96 647.72,679.59 645.64,679.83 C643.83,680.03 642.59,680.86 642.27,682.08 C641.99,683.13 641.26,684.01 640.63,684.01 C640.01,684.02 638.54,684.29 637.36,684.60 C636.19,684.92 634.95,684.73 634.62,684.19 ZM 828.75 477.01 C834.03,473.79 832.46,470.00 825.86,470.00 C821.37,470.00 820.90,470.60 821.67,475.34 C822.36,479.60 823.91,479.96 828.75,477.01 ZM 680.50 491.00 C680.84,490.45 682.10,489.97 683.31,489.93 C684.51,489.89 687.30,489.00 689.50,487.95 L 693.50 486.05 L 689.53 486.68 C684.46,487.48 674.60,491.86 677.69,491.94 C678.90,491.97 680.16,491.55 680.50,491.00 ZM 770.44 589.90 C770.01,589.20 770.47,588.13 771.54,587.35 C774.19,585.41 775.18,585.68 774.82,588.24 C774.47,590.71 771.61,591.80 770.44,589.90 ZM 753.76 608.42 C752.74,607.41 754.10,605.00 755.68,605.00 C756.51,605.00 757.01,605.72 756.82,606.67 C756.48,608.46 754.77,609.43 753.76,608.42 ZM 652.00 686.43 C652.00,685.50 652.68,684.99 653.67,685.18 C656.18,685.66 656.52,688.00 654.08,688.00 C652.85,688.00 652.00,687.35 652.00,686.43 ZM 826.00 486.50 C826.00,485.67 825.33,485.00 824.50,485.00 C823.67,485.00 823.00,485.67 823.00,486.50 C823.00,487.33 823.67,488.00 824.50,488.00 C825.33,488.00 826.00,487.33 826.00,486.50 ZM 914.00 380.88 C914.00,379.11 913.75,378.96 912.51,379.99 C911.01,381.24 911.33,383.00 913.06,383.00 C913.58,383.00 914.00,382.04 914.00,380.88 ZM 762.54 920.47 C786.23,917.43 808.44,910.15 828.36,899.23 C823.32,902.00 818.13,904.55 812.80,906.83 C795.62,914.21 781.57,918.03 762.54,920.47 ZM 915.51 788.36 C917.74,780.00 919.35,771.32 920.40,761.92 C919.85,769.58 919.10,773.93 918.10,778.22 C917.61,780.30 917.06,782.37 916.45,784.80 C916.15,785.99 915.83,787.18 915.51,788.36 ZM 663.50 685.00 C663.16,684.45 663.58,684.00 664.44,684.00 C665.30,684.00 666.00,684.45 666.00,685.00 C666.00,685.55 665.58,686.00 665.06,686.00 C664.54,686.00 663.84,685.55 663.50,685.00 ZM 722.01 485.32 C722.96,485.48 723.90,485.67 724.82,485.87 C732.71,487.62 739.79,490.27 746.22,493.89 C745.40,493.47 744.54,493.03 743.61,492.58 C736.94,489.31 729.20,486.75 722.01,485.32 ZM 644.74 600.88 C639.54,592.98 635.85,584.22 634.08,575.12 C633.98,574.57 633.88,574.00 633.79,573.41 C634.73,578.18 636.55,584.47 638.55,589.23 C640.26,593.29 642.33,597.19 644.74,600.88 ZM 637.71 453.97 C639.54,452.73 642.40,451.00 644.91,449.59 C642.71,450.86 640.52,452.21 638.33,453.64 C637.09,454.45 635.89,455.19 634.91,455.77 C635.73,455.27 636.70,454.64 637.71,453.97 ZM 581.53 687.05 C581.64,687.23 582.54,687.38 584.14,687.50 L 581.50 687.50 L 581.49 686.57 C581.50,686.86 581.52,687.03 581.53,687.05 ZM 897.27 831.72 C899.20,828.39 901.03,824.98 902.77,821.50 C904.48,818.06 906.06,814.66 907.52,811.27 C904.52,818.32 901.10,825.15 897.27,831.72 ZM 632.54 456.97 C632.56,456.98 632.57,456.99 632.59,457.00 C632.58,457.00 632.57,457.00 632.56,457.00 C632.55,457.00 632.55,456.99 632.54,456.97 Z" fill="rgb(213,36,41)"/>
<path d="M 0.00 512.00 L 0.00 0.00 L 512.00 0.00 L 1024.00 0.00 L 1024.00 512.00 L 1024.00 1024.00 L 512.00 1024.00 L 0.00 1024.00 L 0.00 512.00 ZM 762.54 920.47 C781.57,918.03 795.62,914.21 812.80,906.83 C864.04,884.83 902.59,839.44 916.45,784.80 C922.17,762.25 922.00,770.55 922.00,511.93 C922.00,256.97 922.11,262.95 917.04,241.48 C911.27,217.02 897.46,188.41 883.00,170.94 C878.63,165.65 859.38,146.42 854.86,142.82 C853.01,141.35 850.15,139.06 848.50,137.73 C839.27,130.33 819.54,119.45 806.26,114.44 C797.48,111.13 784.77,107.59 773.50,105.32 C764.94,103.59 752.10,103.50 513.00,103.50 C273.45,103.50 261.05,103.59 252.00,105.33 C232.36,109.11 219.03,113.44 204.34,120.82 C178.87,133.62 158.42,150.25 141.14,172.21 C121.98,196.55 111.52,219.87 105.33,252.00 C103.59,261.05 103.50,273.42 103.50,512.00 C103.50,712.76 103.76,763.89 104.79,769.50 C110.99,803.00 121.57,826.95 141.15,851.79 C164.00,880.79 192.08,900.66 227.00,912.53 C232.23,914.31 239.88,916.51 244.00,917.42 C263.91,921.83 260.23,921.77 511.54,921.89 C720.95,921.99 752.07,921.81 762.54,920.47 ZM 186.29 688.25 C185.85,687.29 185.62,629.91 185.76,560.75 L 186.02 435.00 L 211.51 435.00 L 237.00 435.00 L 237.00 441.43 L 237.00 447.87 L 244.64 444.34 C269.85,432.69 302.06,432.26 327.50,443.21 C337.81,447.65 350.13,455.47 357.58,462.29 L 364.14 468.30 L 369.82 462.77 C374.99,457.73 386.78,449.00 388.41,449.00 C388.78,449.00 390.00,448.15 391.11,447.11 C392.23,446.07 394.45,444.96 396.06,444.64 C397.67,444.32 400.90,443.12 403.24,441.98 C416.77,435.41 446.39,433.41 464.50,437.86 C487.68,443.55 507.18,456.56 523.22,477.02 C528.21,483.39 536.91,501.48 538.53,508.85 C538.79,510.03 539.23,512.01 539.51,513.25 C542.51,526.46 542.97,539.80 543.01,613.43 C543.03,654.63 542.67,688.73 542.21,689.19 C541.74,689.66 530.14,689.92 516.43,689.77 L 491.50 689.50 L 490.97 608.00 C490.56,546.69 490.12,525.58 489.18,522.80 C483.42,505.71 473.10,495.18 455.50,488.42 C449.25,486.02 433.45,486.01 426.00,488.39 C419.64,490.43 414.00,493.14 414.00,494.16 C414.00,494.55 413.10,495.15 411.99,495.50 C406.03,497.40 396.13,509.92 392.76,519.85 C390.50,526.49 390.50,526.64 390.00,608.00 L 389.50 689.50 L 364.00 689.50 L 338.50 689.50 L 337.93 608.00 C337.37,527.14 337.18,522.69 333.86,515.50 C325.60,497.60 304.68,484.93 285.62,486.29 C273.04,487.18 260.27,492.77 251.99,501.00 C245.90,507.05 242.92,511.84 239.95,520.30 L 237.08 528.50 L 237.02 608.37 C236.99,652.30 236.72,688.64 236.42,689.12 C236.13,689.60 224.90,690.00 211.48,690.00 C189.20,690.00 187.00,689.85 186.29,688.25 ZM 581.53 687.05 C580.77,685.83 580.81,332.11 581.57,330.89 C582.33,329.65 630.72,329.74 631.48,330.98 C631.82,331.51 632.06,360.09 632.02,394.48 C631.99,428.86 632.23,457.00 632.56,457.00 C632.89,457.00 635.49,455.49 638.33,453.64 C652.13,444.66 665.74,438.92 681.50,435.45 C692.72,432.97 694.70,432.83 712.00,433.28 C729.03,433.72 731.38,434.01 741.50,436.93 C763.97,443.42 782.25,454.15 798.60,470.44 C824.83,496.55 837.75,530.21 835.49,566.50 C831.97,623.14 793.95,669.53 739.50,683.63 C715.54,689.83 688.05,688.50 665.35,680.04 C657.94,677.28 642.78,669.61 637.32,665.87 C635.02,664.29 632.90,663.00 632.60,663.00 C632.30,663.00 631.94,668.51 631.78,675.25 L 631.50 687.50 L 606.82 687.77 C591.40,687.93 581.91,687.67 581.53,687.05 ZM 732.50 632.35 C762.71,621.42 782.03,596.96 784.53,566.50 C786.40,543.78 778.05,521.76 761.36,505.36 C751.24,495.42 739.43,489.12 724.82,485.87 C710.40,482.67 691.66,484.32 679.96,489.82 C655.88,501.14 641.97,517.23 635.28,541.50 C632.92,550.03 632.35,566.18 634.08,575.12 C638.39,597.33 654.18,617.57 675.38,628.05 C688.84,634.71 695.25,636.05 711.50,635.61 C722.79,635.30 725.55,634.87 732.50,632.35 Z" fill="rgb(254,254,254)"/>
</g>
</svg>