<svg xmlns="http://www.w3.org/2000/svg" viewBox="0 0 24 24" fill="none">
    <path d="M17.05 20.28c-.98.95-2.05.88-3.08.4-1.09-.5-2.08-1.52-2.93-3.07C10.02 15.74 9.3 14.28 8.85 13c-.94-2.73-1.63-3.66-2.5-3.66-.46 0-.96.26-1.42 1.07-.46.8-.75 1.95-.75 3.32 0 3.84 2.8 6.27 5.75 6.27 1.83 0 3.26-.88 4.2-2.02.7 1.14 2 2.02 3.65 2.02 2.95 0 5.22-2.52 5.22-5.73 0-4.1-3.2-6.52-6.32-6.52-2.14 0-3.6.93-4.32 2.22l-.12-.22C11.5 8.64 10.63 7.7 9.35 7.7c-2.3 0-4.5 2.06-4.5 5.57 0 .2.02.4.05.6-.2-.3-.4-1.12-.4-1.87 0-3.9 3.03-6 5.85-6 2.3 0 3.68 1.43 4.62 3.88.6 1.58 1.25 3.07 2 4.14.7 1 1.47 1.47 2.1 1.47.6 0 1.22-.5 1.22-2.07 0-1.85-1.1-3.28-2.65-3.28-.7 0-1.28.25-1.72.63l-.33-.53c.6-.66 1.42-1.1 2.4-1.1 2.65 0 4.65 2.15 4.65 5.28 0 3.84-2.75 6.36-5.58 6.36-1.57 0-2.6-.74-3.2-1.92l.06.33z" fill="#0866FF"/>
</svg>
