<svg xmlns="http://www.w3.org/2000/svg" viewBox="0 0 200 200" fill="none">
  <rect width="200" height="200" rx="40" fill="#25D366"/>
  <path d="M100 50c-27.614 0-50 22.386-50 50 0 8.906 2.344 17.266 6.445 24.5L50 150l26.25-6.25C82.734 147.656 91.094 150 100 150c27.614 0 50-22.386 50-50s-22.386-50-50-50zm0 90c-7.5 0-14.609-2.031-20.703-5.547l-1.484-.938-15.391 3.672 3.672-15.391-.938-1.484C61.641 114.609 59.61 107.5 59.61 100c0-22.266 18.125-40.391 40.391-40.391S140.391 77.734 140.391 100 122.266 140.391 100 140.391z" fill="white"/>
  <path d="M120 110c0-2.5-1.25-3.75-3.75-5-2.5-1.25-7.5-3.75-8.75-4.375s-2.5-.625-3.125.625-2.5 4.375-3.125 5-1.25.625-2.5 0-5-1.875-9.375-5.625c-3.438-3.125-5.625-6.875-6.25-8.125s0-1.875.625-2.5c.625-.625 1.25-1.25 1.875-1.875s.625-1.25 1.25-1.875.625-1.25.625-1.875-.625-2.5-1.25-3.75-3.125-7.5-4.375-10.625c-1.25-2.5-2.5-2.5-3.125-2.5h-2.5c-.625 0-1.875.625-2.5 1.25s-3.75 3.75-3.75 8.75 3.75 10 4.375 10.625 7.5 11.875 18.125 16.25c2.5 1.25 4.375 1.875 5.625 2.5 2.5.625 4.375.625 6.25.625 1.875 0 6.25-2.5 7.5-5s1.25-4.375 1.25-5z" fill="white"/>
</svg>
