<svg xmlns="http://www.w3.org/2000/svg" viewBox="0 0 100 100" fill="#FF4A00">
  <path d="M83.4 34.6c-4.4 0-7.9 3.5-7.9 7.9v4.2H68c-4.4 0-7.9 3.5-7.9 7.9v4.2H52.5c-4.4 0-7.9 3.5-7.9 7.9v4.2H36.9c-4.4 0-7.9 3.5-7.9 7.9v4.2H14.6c-4.4 0-7.9 3.5-7.9 7.9v23.2c0 4.4 3.5 7.9 7.9 7.9h23.2c4.4 0 7.9-3.5 7.9-7.9v-4.2h15.6c4.4 0 7.9-3.5 7.9-7.9v-4.2h15.6c4.4 0 7.9-3.5 7.9-7.9v-4.2h15.6c4.4 0 7.9-3.5 7.9-7.9v-23.2c0-4.4-3.5-7.9-7.9-7.9H83.4z M45.5 87.2V64.1c0-4.4-3.5-7.9-7.9-7.9 H14.6V34.6h23.2c4.4 0 7.9-3.5 7.9-7.9V22.5c0-4.4-3.5-7.9-7.9-7.9H14.6c-4.4 0-7.9 3.5-7.9 7.9v69.6c0 4.4 3.5 7.9 7.9 7.9 h23.2c4.4 0 7.9-3.5 7.9-7.9V87.2zm45.6 0V64.1c0-4.4-3.5-7.9-7.9-7.9H60.4V34.6h23.2c4.4 0 7.9-3.5 7.9-7.9V22.5c0-4.4-3.5-7.9-7.9-7.9 H60.4c-4.4 0-7.9 3.5-7.9 7.9v69.6c0 4.4 3.5 7.9 7.9 7.9h23.2c4.4 0 7.9-3.5 7.9-7.9V87.2z" transform="scale(0.8) translate(10, 10)"/>
</svg>
